<svg width="25" height="34" viewBox="0 0 25 34" fill="none" xmlns="http://www.w3.org/2000/svg">
<path d="M3.58368 0.727446L0.00512212 33.0873C-0.00760734 33.2021 0.00345445 33.3184 0.0375826 33.4285C0.0717108 33.5386 0.128135 33.64 0.203158 33.7262C0.278181 33.8124 0.370109 33.8813 0.472918 33.9285C0.575728 33.9757 0.687098 34 0.799731 34H19.8784C20.0032 34.0001 20.1262 33.9702 20.2377 33.9128C20.3492 33.8553 20.4461 33.772 20.5205 33.6693C20.595 33.5666 20.645 33.4475 20.6666 33.3214C20.6882 33.1954 20.6807 33.0659 20.6448 32.9434L17.1622 21.0829C17.1561 21.062 17.1542 21.04 17.1568 21.0184C17.1594 20.9967 17.1664 20.9759 17.1773 20.9571C17.1882 20.9384 17.2027 20.9222 17.2201 20.9096C17.2374 20.897 17.2571 20.8882 17.278 20.8839L24.3625 19.3812C24.5625 19.3387 24.7391 19.2193 24.856 19.0475C24.9729 18.8758 25.0213 18.6646 24.9913 18.4574L22.4397 0.848666C22.4171 0.693704 22.3518 0.548614 22.2513 0.430551C22.1509 0.312489 22.0196 0.226391 21.873 0.18244C21.7264 0.138489 21.5705 0.138522 21.4239 0.182536C21.2773 0.22655 21.1461 0.312704 21.0457 0.430809L16.775 5.45998C16.7607 5.47656 16.7432 5.4899 16.7236 5.49916C16.7041 5.50842 16.6828 5.51339 16.6612 5.51377L10.4927 5.59155C10.453 5.59244 10.4144 5.57763 10.385 5.55017L4.92927 0.225605C4.82145 0.120539 4.6872 0.0483909 4.5416 0.0172625C4.396 -0.0138659 4.24483 -0.00274118 4.10506 0.0493872C3.96529 0.101516 3.84245 0.192583 3.75035 0.31236C3.65825 0.432138 3.60054 0.575882 3.58368 0.727446Z" fill="#000"/>
</svg>
