<svg width="44" height="32" viewBox="0 0 44 32" fill="none" xmlns="http://www.w3.org/2000/svg">
<path fill-rule="evenodd" clip-rule="evenodd" d="M0.435974 2.18404C0 3.03969 0 4.15979 0 6.4V18.1385C0 20.3787 0 21.4988 0.435974 22.3544C0.819467 23.1071 1.43139 23.719 2.18404 24.1025C3.03969 24.5385 4.15979 24.5385 6.4 24.5385H16.7239L21.178 30.9674C21.5757 31.5414 22.4243 31.5414 22.822 30.9674L27.2761 24.5385H37.6C39.8402 24.5385 40.9603 24.5385 41.816 24.1025C42.5686 23.719 43.1805 23.1071 43.564 22.3544C44 21.4988 44 20.3787 44 18.1385V6.4C44 4.15979 44 3.03969 43.564 2.18404C43.1805 1.43139 42.5686 0.819467 41.816 0.435974C40.9603 0 39.8402 0 37.6 0H6.4C4.15979 0 3.03969 0 2.18404 0.435974C1.43139 0.819467 0.819467 1.43139 0.435974 2.18404Z" fill="#0620F9"/>
<path d="M7.23973 16H9.89842C12.2026 16 13.5561 14.5659 13.5561 12.1274V12.1167C13.5561 9.68359 12.1972 8.24951 9.89842 8.24951H7.23973V16ZM8.20652 15.1299V9.11963H9.83397C11.5527 9.11963 12.5679 10.2368 12.5679 12.1274V12.1382C12.5679 14.0234 11.5635 15.1299 9.83397 15.1299H8.20652ZM17.069 16.1021C18.4333 16.1021 19.2604 15.3286 19.4592 14.5444L19.4699 14.5015H18.5353L18.5139 14.5498C18.3581 14.8989 17.8747 15.2695 17.0905 15.2695C16.0593 15.2695 15.3986 14.5713 15.3718 13.3735H19.5397V13.0083C19.5397 11.2788 18.5837 10.1079 17.0099 10.1079C15.4362 10.1079 14.4157 11.3325 14.4157 13.1211V13.1265C14.4157 14.9419 15.4147 16.1021 17.069 16.1021ZM17.0046 10.9404C17.8586 10.9404 18.4924 11.4829 18.5891 12.627H15.3879C15.4899 11.5259 16.1452 10.9404 17.0046 10.9404ZM20.6356 16H21.5702V7.91113H20.6356V16ZM25.3194 16.1021C26.6837 16.1021 27.5108 15.3286 27.7096 14.5444L27.7203 14.5015H26.7857L26.7643 14.5498C26.6085 14.8989 26.1251 15.2695 25.3409 15.2695C24.3097 15.2695 23.649 14.5713 23.6222 13.3735H27.7901V13.0083C27.7901 11.2788 26.8341 10.1079 25.2604 10.1079C23.6866 10.1079 22.6661 11.3325 22.6661 13.1211V13.1265C22.6661 14.9419 23.6651 16.1021 25.3194 16.1021ZM25.255 10.9404C26.109 10.9404 26.7428 11.4829 26.8395 12.627H23.6383C23.7403 11.5259 24.3956 10.9404 25.255 10.9404ZM30.8895 16.043C31.0721 16.043 31.2493 16.0215 31.4319 15.9893V15.1943C31.2601 15.2104 31.1688 15.2158 31.0023 15.2158C30.4007 15.2158 30.1644 14.9419 30.1644 14.2598V10.9834H31.4319V10.21H30.1644V8.71143H29.1976V10.21H28.2845V10.9834H29.1976V14.4961C29.1976 15.6025 29.6971 16.043 30.8895 16.043ZM34.6978 16.1021C36.062 16.1021 36.8892 15.3286 37.0879 14.5444L37.0987 14.5015H36.1641L36.1426 14.5498C35.9868 14.8989 35.5034 15.2695 34.7193 15.2695C33.688 15.2695 33.0274 14.5713 33.0005 13.3735H37.1685V13.0083C37.1685 11.2788 36.2124 10.1079 34.6387 10.1079C33.065 10.1079 32.0445 11.3325 32.0445 13.1211V13.1265C32.0445 14.9419 33.0435 16.1021 34.6978 16.1021ZM34.6333 10.9404C35.4873 10.9404 36.1211 11.4829 36.2178 12.627H33.0166C33.1187 11.5259 33.7739 10.9404 34.6333 10.9404Z" fill="white"/>
</svg>
